<svg id="Layer_1" data-name="Layer 1" xmlns="http://www.w3.org/2000/svg" viewBox="0 0 426.2 487.18"><defs><style>.cls-1{fill:#f19d20;}.cls-2{fill:#ffcd2c;}.cls-3,.cls-5,.cls-6{fill:#fff;}.cls-3,.cls-6{stroke:#414042;stroke-linejoin:round;stroke-width:16px;}.cls-3{stroke-linecap:square;}.cls-4{fill:#414042;}</style></defs><polygon class="cls-1" points="410.2 357.38 410.2 129.79 213.1 16 16 129.79 16 357.38 213.1 471.18 410.2 357.38"/><polygon class="cls-2" points="16 357.38 410.2 129.79 410.2 357.38 213.1 471.18 16 357.38"/><path class="cls-3" d="M154.49,247.38a102.18,102.18,0,0,1,7.24-37.64,106.31,106.31,0,0,1,21.11-33.51,102.91,102.91,0,0,1,33.8-24.06q19.94-9,45-9,30.12,0,52.55,12.54t33.37,33.22l-44,31.29q-3.84-10.32-11.08-15.94a43.2,43.2,0,0,0-15.64-7.82,64.11,64.11,0,0,0-16.39-2.22q-12.39,0-21.4,4.87A43.21,43.21,0,0,0,224.32,212a56.84,56.84,0,0,0-8.57,17.71,70.16,70.16,0,0,0-2.8,19.49,67.52,67.52,0,0,0,3.25,21A56.35,56.35,0,0,0,225.64,288a43.78,43.78,0,0,0,15.21,12.25,45.22,45.22,0,0,0,20.22,4.43,55.46,55.46,0,0,0,16.24-2.51A43.09,43.09,0,0,0,292.37,294,34.93,34.93,0,0,0,302.7,279l46.94,28Q343.45,322.38,329,333.3A107.51,107.51,0,0,1,296.21,350a120.57,120.57,0,0,1-36.32,5.76,97.26,97.26,0,0,1-42.66-9.3,107,107,0,0,1-33.36-24.8,114.64,114.64,0,0,1-21.7-34.84A105.94,105.94,0,0,1,154.49,247.38Z" transform="translate(-36.9 -6.41)"/><rect class="cls-4" x="132.75" y="401.96" width="57.84" height="16" transform="translate(-220.22 129.35) rotate(-30)"/><rect class="cls-4" x="173.06" y="408.63" width="84.54" height="16" transform="translate(200.26 -58.26) rotate(30)"/><rect class="cls-4" x="236.42" y="401.7" width="112.24" height="16" transform="translate(-202.56 194.75) rotate(-30)"/><circle class="cls-4" cx="304.28" cy="375.05" r="15"/><path class="cls-5" d="M309.84,116.37a4.93,4.93,0,0,1-2.49-.67L261.6,89.28A20.84,20.84,0,1,1,270.83,72c0,.46,0,.93-.05,1.39l39.07,22.55,41.82-24.15a5,5,0,0,1,2.5-.67,5,5,0,0,1,4.33,2.5l4.2,7.26a5,5,0,0,1-1.83,6.83l-48.29,27.87-.23.15A5.1,5.1,0,0,1,309.84,116.37Z" transform="translate(-36.9 -6.41)"/><path class="cls-4" d="M250,56.14A15.83,15.83,0,0,1,265.83,72a16.08,16.08,0,0,1-.51,4l44.53,25.7,44.32-25.59,4.2,7.26-48.51,28h0L261.12,83.23A15.83,15.83,0,1,1,250,56.14m0-10a25.83,25.83,0,1,0,11.61,48.92l43.24,25a10,10,0,0,0,10,0l.42-.26L363.37,92A10,10,0,0,0,367,78.34l-4.2-7.26a10,10,0,0,0-13.66-3.65l-39.32,22.7L275.79,70.48A25.87,25.87,0,0,0,250,46.14Z" transform="translate(-36.9 -6.41)"/><path class="cls-4" d="M250,22.41l197.1,113.8V363.79L250,477.59,52.9,363.79V136.21L250,22.41m0-16a16.1,16.1,0,0,0-8,2.14L44.9,122.35a16,16,0,0,0-8,13.86V363.79a16,16,0,0,0,8,13.86L242,491.45a16,16,0,0,0,16,0l197.1-113.8a16,16,0,0,0,8-13.86V136.21a16,16,0,0,0-8-13.86L258,8.55a16.1,16.1,0,0,0-8-2.14Z" transform="translate(-36.9 -6.41)"/><g id="layer1"><g id="g3879"><path id="path3773" class="cls-6" d="M291.41,235.58a38.53,38.53,0,1,0,0,27.62l67.63,26a111,111,0,1,1,0-79.53Z" transform="translate(-36.9 -6.41)"/></g></g></svg>