<svg id="Layer_1" data-name="Layer 1" xmlns="http://www.w3.org/2000/svg" viewBox="0 0 560.96 676.9"><defs><style>.cls-1{fill:#f19d20;}.cls-2{fill:#ffcd2c;}.cls-3,.cls-5,.cls-6{fill:#fff;}.cls-3,.cls-6{stroke:#414042;stroke-linejoin:round;stroke-width:16px;}.cls-3{stroke-linecap:square;}.cls-4,.cls-7,.cls-8{fill:#414042;}.cls-7{font-size:121.09px;font-family:Poppins-ExtraBold, Poppins;font-weight:800;}.cls-8{font-size:29.93px;font-family:Poppins-Light, Poppins;font-weight:300;letter-spacing:0.18em;}</style></defs><polygon class="cls-1" points="478.07 357.38 478.07 129.79 280.97 16 83.87 129.79 83.87 357.38 280.97 471.18 478.07 357.38"/><polygon class="cls-2" points="83.87 357.38 478.07 129.79 478.07 357.38 280.97 471.18 83.87 357.38"/><path class="cls-3" d="M204,261.49a102.16,102.16,0,0,1,7.23-37.64,106.31,106.31,0,0,1,21.11-33.51,103.12,103.12,0,0,1,33.8-24.06q19.94-9,45-9,30.1,0,52.55,12.54T397.08,203l-44,31.29Q349.25,224,342,218.39a43.5,43.5,0,0,0-15.65-7.83A64.53,64.53,0,0,0,310,208.35q-12.39,0-21.4,4.87a43.39,43.39,0,0,0-14.76,12.84,56.65,56.65,0,0,0-8.56,17.72,69.73,69.73,0,0,0-2.81,19.48,67.53,67.53,0,0,0,3.25,21,56.28,56.28,0,0,0,9.45,17.86,43.77,43.77,0,0,0,15.2,12.25,45.22,45.22,0,0,0,20.22,4.43,55.8,55.8,0,0,0,16.24-2.51,43.09,43.09,0,0,0,15.06-8.12,35,35,0,0,0,10.33-15.06l46.94,28.05q-6.19,15.36-20.66,26.28a107.51,107.51,0,0,1-32.77,16.68,120.82,120.82,0,0,1-36.32,5.75,97.12,97.12,0,0,1-42.66-9.3,107,107,0,0,1-33.36-24.8,114.47,114.47,0,0,1-21.7-34.83A105.92,105.92,0,0,1,204,261.49Z" transform="translate(-18.53 -20.52)"/><rect class="cls-4" x="182.26" y="416.06" width="57.84" height="16" transform="translate(-202.27 141.88) rotate(-30)"/><rect class="cls-4" x="222.57" y="422.74" width="84.54" height="16" transform="translate(232.32 -95.23) rotate(30)"/><rect class="cls-4" x="285.92" y="415.81" width="112.24" height="16" transform="translate(-184.61 207.28) rotate(-30)"/><circle class="cls-4" cx="372.15" cy="375.05" r="15"/><path class="cls-5" d="M359.34,130.48a5,5,0,0,1-2.49-.67L311.1,103.39a20.84,20.84,0,1,1,9.23-17.31c0,.46,0,.93,0,1.39L359.35,110l41.82-24.15a4.94,4.94,0,0,1,2.5-.67A5,5,0,0,1,408,87.69L412.2,95a5,5,0,0,1,.5,3.8,5,5,0,0,1-2.33,3L362.1,129.65a1.65,1.65,0,0,1-.25.15A5,5,0,0,1,359.34,130.48Z" transform="translate(-18.53 -20.52)"/><path class="cls-4" d="M299.5,70.25a15.83,15.83,0,0,1,15.83,15.83,16.08,16.08,0,0,1-.51,4l44.53,25.7L403.67,90.2l4.2,7.26-48.51,28h0L310.62,97.34A15.83,15.83,0,1,1,299.5,70.25m0-10a25.83,25.83,0,1,0,11.61,48.92l43.24,25a10,10,0,0,0,10,0c.15-.08.29-.17.43-.26l48.09-27.76a10,10,0,0,0,3.66-13.67l-4.2-7.26a10,10,0,0,0-13.66-3.65l-39.32,22.7L325.29,84.58A25.86,25.86,0,0,0,299.5,60.25Z" transform="translate(-18.53 -20.52)"/><path class="cls-4" d="M299.5,36.52,496.6,150.31V377.9L299.5,491.7,102.4,377.9V150.31L299.5,36.52m0-16a16,16,0,0,0-8,2.14L94.4,136.46a16,16,0,0,0-8,13.85V377.9a16,16,0,0,0,8,13.86L291.5,505.55a16,16,0,0,0,16,0L504.6,391.76a16,16,0,0,0,8-13.86V150.31a16,16,0,0,0-8-13.85L307.5,22.66a16,16,0,0,0-8-2.14Z" transform="translate(-18.53 -20.52)"/><g id="layer1"><g id="g3879"><path id="path3773" class="cls-6" d="M340.92,249.69a38.52,38.52,0,1,0,0,27.62l67.62,26a111,111,0,1,1,0-79.53Z" transform="translate(-18.53 -20.52)"/></g></g><text class="cls-7" transform="translate(0 602.31)">COLMEIA</text><text class="cls-8" transform="translate(3.87 645.46)">SOFTWARE E HARDWARE LIVRE</text></svg>